<svg version="1.1" id="Layer_1" xmlns="http://www.w3.org/2000/svg" xmlns:xlink="http://www.w3.org/1999/xlink" x="0px" y="0px"
	 width="100%" viewBox="0 0 225 225" enable-background="new 0 0 225 225" xml:space="preserve">
<path fill="#FEFFFF" opacity="1.000000" stroke="none" 
	d="
M1.000000,85.000000 
	C1.000000,56.666672 1.000000,28.833344 1.000000,1.000011 
	C75.999977,1.000007 150.999954,1.000007 225.999954,1.000004 
	C225.999969,75.999969 225.999969,150.999939 225.999985,225.999939 
	C151.000046,225.999954 76.000092,225.999954 1.000068,225.999969 
	C1.000000,179.166672 1.000000,132.333328 1.000000,85.000000 
M166.106369,205.279922 
	C166.192673,205.329239 166.278976,205.378540 166.365295,205.427841 
	C166.244141,205.284744 166.122986,205.141632 165.686661,204.455948 
	C165.339951,204.224380 164.993225,203.992798 164.402267,203.037674 
	C166.423615,202.026062 168.444977,201.014435 171.019608,200.383224 
	C171.652542,200.545059 172.285461,200.706879 172.918396,200.868713 
	C172.958435,200.634796 172.998489,200.400864 173.038544,200.166946 
	C172.192993,200.107269 171.347458,200.047592 170.120621,199.310959 
	C171.019836,198.514328 171.919037,197.717682 173.456879,197.019104 
	C174.390198,197.354935 175.323532,197.690765 176.256851,198.026596 
	C176.099457,196.871719 175.942062,195.716858 176.153107,194.032288 
	C178.803726,191.366776 181.454361,188.701263 184.779266,185.949524 
	C185.847443,184.618607 186.915604,183.287674 188.215378,181.342316 
	C189.803406,177.926102 191.149261,174.370590 193.020416,171.117203 
	C202.276733,155.023270 207.777252,137.975845 205.959488,119.203827 
	C204.800644,107.236450 202.161560,95.629578 194.553452,84.808167 
	C190.247757,86.757156 185.921509,88.687149 181.619034,90.668777 
	C172.334076,94.945251 163.061356,99.248245 153.463272,103.633980 
	C153.254471,103.726982 153.077972,103.862198 152.962997,103.959969 
	C152.962997,103.959969 153.046829,103.973022 152.283157,103.895599 
	C151.564682,104.122292 150.846222,104.348984 149.480194,104.237778 
	C143.733429,98.765129 137.986664,93.292473 132.272446,87.850830 
	C135.500000,80.750977 138.576157,73.984161 142.351395,67.196739 
	C158.787842,72.843750 172.488449,66.090324 180.553177,52.802113 
	C186.730759,42.623383 182.992584,25.695934 173.439590,17.067352 
	C162.875992,7.525976 144.933014,4.938949 129.947510,18.992769 
	C128.622620,18.999498 127.297737,19.006227 125.095253,19.003828 
	C122.697456,19.003828 120.299660,19.003828 117.901863,19.003828 
	C117.901070,19.354147 117.900269,19.704464 117.899475,20.054783 
	C120.603218,20.054783 123.306969,20.054783 126.374634,20.563297 
	C126.958549,21.134218 127.542465,21.705137 128.086273,22.710382 
	C128.086273,22.710382 127.758606,22.998274 127.055153,23.002724 
	C126.587036,23.057898 126.118927,23.113070 124.758179,23.191986 
	C118.950974,23.180361 113.143776,23.168736 106.577103,23.057516 
	C105.254440,23.717571 103.931786,24.377626 102.609123,25.037682 
	C102.753662,25.418673 102.898201,25.799662 103.042740,26.180651 
	C104.341316,25.830673 105.639893,25.480696 107.882843,25.137524 
	C113.883347,25.036999 119.883850,24.936472 125.928391,25.423515 
	C125.885002,25.615067 125.841606,25.806618 125.396088,26.455429 
	C125.342812,26.851927 125.289536,27.248425 125.274155,27.856804 
	C125.274155,27.856804 125.113678,28.000252 124.642334,28.199951 
	C124.453056,28.475653 124.263786,28.751354 124.213158,29.067043 
	C124.213158,29.067043 124.303986,29.179152 123.347527,28.960300 
	C107.872337,28.173649 92.590347,28.674431 78.156158,35.347874 
	C73.582207,37.462578 68.902390,39.348301 63.893745,40.787014 
	C63.469963,40.478996 63.046181,40.170979 62.622398,39.862961 
	C62.507011,40.064613 62.391624,40.266266 62.276241,40.467918 
	C62.907692,40.767094 63.539146,41.066269 64.036766,42.128059 
	C63.018311,42.857990 61.999859,43.587917 60.915485,43.570057 
	C60.256973,43.165924 59.598465,42.761791 58.939953,42.357655 
	C58.756317,42.732498 58.572681,43.107338 58.389042,43.482182 
	C59.242847,43.754353 60.096649,44.026524 60.572582,44.857937 
	C59.487328,45.634457 58.402073,46.410976 56.724396,46.830597 
	C52.403664,43.236549 52.659367,47.249771 51.275253,49.919888 
	C49.865788,51.611778 48.456322,53.303669 46.292439,54.945354 
	C44.542187,56.955975 42.791939,58.966595 40.130123,61.232342 
	C40.076015,62.001804 40.021912,62.771263 39.690014,63.468807 
	C39.462967,63.569637 39.408310,63.729233 38.512646,63.623253 
	C38.326412,64.250008 38.140175,64.876755 37.702076,65.544975 
	C37.531521,65.635857 37.452980,65.777664 36.699455,65.973351 
	C35.922066,67.279282 35.144676,68.585213 33.878632,70.347984 
	C33.566246,71.562134 33.253860,72.776291 32.997952,74.001183 
	C32.997952,74.001183 32.971390,73.950195 32.277050,73.837967 
	C31.518103,75.225883 30.759155,76.613808 29.746302,78.653214 
	C29.815075,79.094360 29.883848,79.535500 29.997286,80.002441 
	C29.997286,80.002441 29.958693,79.971207 29.239946,80.090134 
	C29.138149,80.780403 29.036352,81.470673 28.541046,82.660164 
	C27.020081,86.461662 25.499115,90.263161 23.995255,94.539703 
	C23.995255,94.539703 24.007320,95.014900 24.226591,95.480232 
	C24.489027,95.698128 24.751463,95.916016 25.048632,96.751854 
	C25.079876,96.955788 25.111118,97.159714 25.197538,98.017342 
	C25.064110,98.658508 24.930681,99.299667 24.145449,99.965408 
	C23.809269,100.658737 23.473089,101.352074 23.053005,102.874458 
	C22.438948,110.095222 20.959606,117.366997 21.381622,124.526695 
	C22.427378,142.268341 28.278917,158.614532 37.834820,173.631256 
	C38.598198,174.830902 38.733555,176.430161 38.515480,178.042648 
	C38.282410,178.758469 37.626343,179.802505 37.885448,180.136429 
	C39.477146,182.187637 41.275734,184.078323 43.005463,185.994217 
	C43.005463,185.994217 42.977222,185.994522 43.279308,186.543442 
	C43.858105,186.701187 44.436901,186.858932 45.007198,186.991226 
	C45.007198,186.991226 44.980705,186.986908 45.096828,187.521423 
	C45.404163,187.688690 45.711498,187.855957 46.009808,187.992584 
	C46.009808,187.992584 45.981182,187.978409 45.940426,188.603958 
	C46.293831,189.075943 46.647236,189.547913 47.003269,189.996658 
	C47.003269,189.996658 46.980015,189.999573 47.251350,190.567825 
	C47.837868,190.717453 48.424381,190.867081 49.005753,190.992538 
	C49.005753,190.992538 48.981037,190.992981 49.037918,191.552307 
	C49.355972,191.705856 49.674026,191.859406 50.000458,191.999390 
	C50.000458,191.999390 49.985821,192.005569 49.925217,192.622116 
	C50.286808,193.097061 50.648403,193.572021 51.454041,194.521408 
	C52.007404,193.545517 52.560768,192.569626 53.721924,191.925705 
	C55.548317,193.855133 57.374706,195.784546 58.598137,197.921585 
	C58.238018,198.363693 57.877895,198.805786 57.517776,199.247894 
	C57.757404,199.405640 57.997036,199.563385 58.236668,199.721146 
	C58.589302,199.083008 58.941936,198.444885 59.877476,197.212662 
	C67.662476,201.362778 75.432060,205.542267 83.241768,209.645355 
	C85.621040,210.895386 88.110840,211.935028 90.343567,213.782593 
	C90.850212,213.591599 91.356850,213.400604 92.760269,213.083450 
	C96.825493,214.433426 100.890709,215.783386 105.203400,217.889008 
	C109.967674,219.403275 114.703674,220.478287 119.528313,216.998413 
	C119.528313,216.998413 119.910263,216.982147 120.092911,217.781403 
	C123.736992,217.851944 127.381081,217.922485 130.999268,217.996414 
	C130.999268,217.996414 130.991165,218.021255 131.791641,218.017868 
	C133.171890,218.017868 134.552124,218.017868 135.932373,218.017868 
	C135.903763,217.693649 135.875153,217.369415 135.846542,217.045197 
	C134.254578,217.045197 132.662598,217.045197 130.508804,217.014069 
	C130.321472,217.004974 130.134125,216.995865 130.000854,216.487885 
	C130.035019,216.155930 130.069183,215.823990 130.808105,215.259720 
	C131.543671,215.193237 132.279251,215.126755 133.307831,215.493011 
	C133.898315,215.137222 134.488815,214.781448 135.868103,214.240067 
	C143.989731,211.140915 152.102234,208.017380 160.241898,204.966339 
	C161.612457,204.452606 163.100342,204.251923 164.986389,204.325134 
	C165.323761,204.550690 165.661133,204.776260 166.106369,205.279922 
M29.574711,69.933289 
	C29.897085,69.626411 30.219458,69.319542 30.541832,69.012672 
	C30.331352,68.830185 30.120872,68.647705 29.910393,68.465218 
	C29.605389,68.975754 29.300385,69.486282 28.582466,70.243401 
	C28.598415,70.596397 28.614365,70.949402 28.630318,71.302399 
	C28.755182,70.869896 28.880049,70.437386 29.574711,69.933289 
M97.445045,19.063000 
	C97.115669,19.480171 96.786293,19.897343 96.456917,20.314514 
	C96.965660,20.261679 97.474411,20.208845 98.616241,20.069197 
	C99.177269,19.944946 99.738289,19.820698 100.299316,19.696449 
	C100.291695,19.517292 100.284073,19.338135 100.276459,19.158978 
	C99.523026,19.108471 98.769600,19.057962 97.445045,19.063000 
M29.897121,167.697647 
	C29.804979,167.650406 29.712839,167.603180 29.620701,167.555939 
	C29.739931,167.709610 29.859161,167.863297 30.061394,168.584625 
	C30.371138,168.904709 30.680882,169.224808 30.990618,169.544891 
	C31.173689,169.334122 31.356758,169.123367 31.539841,168.912613 
	C31.032410,168.600891 30.524979,168.289169 29.897121,167.697647 
M209.993881,129.081863 
	C209.993881,122.922897 209.993881,116.763939 209.993881,110.604973 
	C209.308762,110.601067 208.623627,110.597168 207.938507,110.593262 
	C207.938507,119.407715 207.938507,128.222153 207.728363,137.541611 
	C208.815338,136.923050 210.763443,136.376434 210.822296,135.671997 
	C210.977585,133.813156 210.313202,131.885834 209.993881,129.081863 
M16.022058,124.826523 
	C16.641733,125.027969 17.261408,125.229416 17.881081,125.430862 
	C17.881081,121.510872 17.881081,117.590889 17.881081,113.670898 
	C17.253670,113.666351 16.626259,113.661804 15.998849,113.657257 
	C15.998849,117.098801 15.998849,120.540344 16.022058,124.826523 
M204.040878,154.487823 
	C205.397858,154.051788 206.754852,153.615768 209.423218,152.758377 
	C207.029724,151.380310 205.938919,150.752289 204.384186,149.857147 
	C204.209137,151.647995 204.102936,152.734543 204.040878,154.487823 
M17.977198,107.943413 
	C17.836071,109.078102 17.694942,110.212784 17.553816,111.347473 
	C17.875378,111.367958 18.196939,111.388435 18.518501,111.408920 
	C18.518501,108.032173 18.518501,104.655418 18.518501,101.278664 
	C18.342762,101.268944 18.167021,101.259216 17.991282,101.249489 
	C17.991282,103.205612 17.991282,105.161728 17.977198,107.943413 
M110.311241,18.000118 
	C107.864563,18.000118 105.417892,18.000118 102.971214,18.000118 
	C102.973763,18.247236 102.976303,18.494356 102.978851,18.741474 
	C106.998352,18.741474 111.017860,18.741474 115.037369,18.741474 
	C115.045059,18.566059 115.052750,18.390642 115.060440,18.215227 
	C113.767014,18.143660 112.473587,18.072094 110.311241,18.000118 
M72.471443,209.199463 
	C73.735748,209.722260 75.000053,210.245056 76.264359,210.767838 
	C76.445786,210.385788 76.627220,210.003738 76.808647,209.621674 
	C75.186157,208.864853 73.563660,208.108017 71.941170,207.351181 
	C71.925049,207.860840 71.908928,208.370483 72.471443,209.199463 
M19.890543,97.774559 
	C20.312750,95.840248 20.734957,93.905937 21.157162,91.971634 
	C20.661001,91.900429 20.164841,91.829231 19.668680,91.758034 
	C19.554613,93.871040 19.440544,95.984039 19.890543,97.774559 
M208.387711,143.369720 
	C207.817673,142.761093 207.247650,142.152466 206.677612,141.543839 
	C206.463104,142.112656 206.248596,142.681458 206.034088,143.250275 
	C206.711243,143.451294 207.388397,143.652313 208.387711,143.369720 
M62.362774,202.933960 
	C62.459213,202.421310 62.555656,201.908676 62.652100,201.396027 
	C62.044144,201.401566 61.436188,201.407104 60.828228,201.412628 
	C61.144611,201.883087 61.460995,202.353561 62.362774,202.933960 
M34.060509,63.770123 
	C34.077324,63.344971 34.094139,62.919823 34.110950,62.494667 
	C33.628857,62.983002 33.146763,63.471340 32.664673,63.959679 
	C33.049908,64.055473 33.435143,64.151260 34.060509,63.770123 
M196.389572,170.203171 
	C196.785141,170.207352 197.180695,170.211517 197.576248,170.215698 
	C197.577789,170.051544 197.590302,169.744690 197.579285,169.743835 
	C197.185623,169.713531 196.789764,169.711838 196.389572,170.203171 
M17.796686,132.389206 
	C17.792515,132.785034 17.788343,133.180847 17.784172,133.576675 
	C17.948423,133.578201 18.255438,133.590714 18.256289,133.579666 
	C18.286612,133.185745 18.288284,132.789627 17.796686,132.389206 
M70.882553,35.112499 
	C70.351814,35.345959 69.821068,35.579418 69.290329,35.812878 
	C69.396591,36.043896 69.502853,36.274914 69.609123,36.505932 
	C70.163986,36.150818 70.718849,35.795704 70.882553,35.112499 
M19.884008,136.170181 
	C19.784115,136.038345 19.704323,135.829300 19.578627,135.796570 
	C19.455021,135.764404 19.166636,135.894577 19.154324,135.982162 
	C19.076246,136.537552 19.054688,137.100891 19.014496,137.661606 
	C19.314819,137.329681 19.615143,136.997772 19.884008,136.170181 
M31.935698,171.832962 
	C32.390671,172.010239 32.845642,172.187515 33.300617,172.364792 
	C33.379879,172.085800 33.459141,171.806824 33.538403,171.527832 
	C32.949272,171.477356 32.360142,171.426880 31.935698,171.832962 
M34.392891,175.124084 
	C34.813820,175.077545 35.234745,175.031006 35.655678,174.984467 
	C35.481594,174.722244 35.227161,174.213043 35.146881,174.239166 
	C34.725941,174.376114 34.349102,174.648621 34.392891,175.124084 
M79.752357,212.551865 
	C80.290215,212.574539 80.830910,212.630646 81.362976,212.585312 
	C81.446648,212.578201 81.491158,212.111435 81.553772,211.857208 
	C81.028214,211.943405 80.502655,212.029602 79.752357,212.551865 
M152.679001,212.020798 
	C152.060364,212.108292 151.441742,212.195801 150.823120,212.283310 
	C150.878677,212.510071 150.934250,212.736832 150.989822,212.963593 
	C151.506729,212.811737 152.023651,212.659882 152.679001,212.020798 
M24.795727,78.387253 
	C24.791571,78.784431 24.787415,79.181610 24.783260,79.578789 
	C24.948088,79.580315 25.256178,79.592857 25.257030,79.581772 
	C25.287420,79.186485 25.289064,78.789001 24.795727,78.387253 
M98.669113,26.377932 
	C98.592316,26.117109 98.515511,25.856287 98.438713,25.595463 
	C98.149406,25.878441 97.860100,26.161417 97.570801,26.444393 
	C97.829788,26.527292 98.088776,26.610191 98.669113,26.377932 
M23.938461,154.265915 
	C23.963289,154.611877 23.988117,154.957825 24.012943,155.303787 
	C24.255806,155.231216 24.498669,155.158646 24.741531,155.086075 
	C24.621128,154.833588 24.500725,154.581100 23.938461,154.265915 
M21.604132,148.526459 
	C21.875652,148.818817 22.147175,149.111160 22.418699,149.403519 
	C22.521921,149.298737 22.723818,149.113083 22.713907,149.100998 
	C22.472675,148.806641 22.208895,148.530762 21.604132,148.526459 
M205.959641,148.321259 
	C206.107162,148.078812 206.254684,147.836349 206.402206,147.593887 
	C206.151199,147.504730 205.900177,147.415573 205.649170,147.326416 
	C205.607407,147.686981 205.565659,148.047546 205.959641,148.321259 
M18.175688,129.028763 
	C18.271677,129.437149 18.367666,129.845551 18.463654,130.253937 
	C18.585131,130.164383 18.819380,130.059219 18.809492,129.987869 
	C18.752043,129.573288 18.637186,129.166672 18.175688,129.028763 
M74.390106,29.471035 
	C74.121368,29.181450 73.852623,28.891865 73.583885,28.602278 
	C73.481453,28.705845 73.281273,28.889519 73.290901,28.901258 
	C73.529991,29.193035 73.791252,29.466646 74.390106,29.471035 
M36.160290,59.950275 
	C36.413361,59.798988 36.796917,59.696815 36.878201,59.480865 
	C36.943169,59.308262 36.640324,58.997219 36.500732,58.747620 
	C36.360661,58.997547 36.220589,59.247478 36.160290,59.950275 
M87.295418,22.896456 
	C87.549591,23.167673 87.798996,23.444008 88.070389,23.696728 
	C88.085815,23.711090 88.281380,23.532005 88.393105,23.442957 
	C88.127129,23.158953 87.861153,22.874949 87.295418,22.896456 
M79.475098,31.386862 
	C79.531212,31.166531 79.587326,30.946201 79.643440,30.725870 
	C79.504547,30.867767 79.365662,31.009663 79.475098,31.386862 
M66.822571,205.240356 
	C66.878830,205.409897 66.935089,205.579437 66.991356,205.748978 
	C67.046150,205.578247 67.100945,205.407516 66.822571,205.240356 
M21.475431,89.454552 
	C21.535799,89.200890 21.596169,88.947235 21.656538,88.693573 
	C21.505421,88.856224 21.354303,89.018867 21.475431,89.454552 
M47.524216,46.625023 
	C47.469151,46.839157 47.414085,47.053295 47.359020,47.267433 
	C47.494392,47.129738 47.629765,46.992043 47.524216,46.625023 
M42.375427,52.523735 
	C42.161430,52.468914 41.947433,52.414089 41.733437,52.359268 
	C41.871040,52.494392 42.008644,52.629517 42.375427,52.523735 
M78.408340,27.482538 
	C78.408340,27.482538 78.522354,27.413971 78.408340,27.482538 
M27.482489,73.589966 
	C27.482489,73.589966 27.413849,73.475456 27.482489,73.589966 
M54.589272,196.517456 
	C54.589272,196.517456 54.475780,196.585358 54.589272,196.517456 
M94.482727,25.591324 
	C94.482727,25.591324 94.415833,25.479082 94.482727,25.591324 
M77.482315,32.605129 
	C77.482315,32.605129 77.400246,32.475521 77.482315,32.605129 
M22.601151,86.527550 
	C22.601151,86.527550 22.466314,86.614159 22.601151,86.527550 
M66.401840,38.482048 
	C66.401840,38.482048 66.521507,38.409035 66.401840,38.482048 
M93.483871,27.595417 
	C93.483871,27.595417 93.410423,27.476086 93.483871,27.595417 
M85.515083,29.392221 
	C85.515083,29.392221 85.600487,29.525034 85.515083,29.392221 
z"/>
<path fill="#30A8C0" opacity="1.000000" stroke="none" 
	d="
M184.105011,186.035767 
	C181.454361,188.701263 178.803726,191.366776 175.671600,194.421341 
	C174.399490,195.513947 173.608871,196.217499 172.818237,196.921051 
	C171.919037,197.717682 171.019836,198.514328 170.321564,199.683380 
	C170.522522,200.055786 170.466339,200.002823 170.466339,200.002808 
	C168.444977,201.014435 166.423615,202.026062 164.522888,203.455307 
	C164.643509,203.872940 164.534012,203.906570 164.534012,203.906570 
	C163.100342,204.251923 161.612457,204.452606 160.241898,204.966339 
	C152.102234,208.017380 143.989731,211.140915 135.189636,214.241074 
	C134.012405,214.514816 133.513611,214.787537 133.014816,215.060257 
	C132.279251,215.126755 131.543671,215.193237 130.098679,215.227905 
	C127.928596,215.484009 126.467941,215.771927 124.557106,216.008850 
	C121.105774,216.029984 118.104614,216.102127 114.697311,216.249390 
	C111.179420,216.594116 108.067673,216.863724 104.955933,217.133331 
	C100.890709,215.783386 96.825493,214.433426 92.098923,213.081879 
	C91.142281,213.023438 90.846428,213.020340 90.550018,213.071045 
	C88.110840,211.935028 85.621040,210.895386 83.241768,209.645355 
	C75.432060,205.542267 67.662476,201.362778 59.530029,197.519379 
	C59.182579,197.826111 59.201099,197.713974 59.201096,197.713974 
	C57.374706,195.784546 55.548317,193.855133 53.244156,191.498016 
	C49.970039,188.196609 47.173687,185.322861 44.272682,182.170868 
	C43.227470,180.857712 42.286907,179.822784 41.124439,178.463943 
	C40.281445,178.061188 39.660362,177.982346 39.081749,177.913147 
	C39.124226,177.922806 39.160763,177.843719 39.160763,177.843719 
	C38.733555,176.430161 38.598198,174.830902 37.834820,173.631256 
	C28.278917,158.614532 22.427378,142.268341 21.381622,124.526695 
	C20.959606,117.366997 22.438948,110.095222 23.406013,102.414490 
	C24.105103,101.283302 24.451180,100.612068 24.797255,99.940834 
	C24.930681,99.299667 25.064110,98.658508 25.417377,97.427673 
	C25.882599,95.917549 26.127981,94.997101 26.600300,93.813721 
	C29.620035,86.877357 32.412834,80.203918 35.472588,73.284805 
	C35.839691,72.364532 35.939838,71.689934 36.019012,71.008469 
	C35.998035,71.001602 36.026768,71.035294 36.349358,71.100555 
	C37.384727,70.094131 38.097511,69.022453 38.964706,67.712341 
	C39.418037,66.992149 39.716949,66.510399 40.310806,65.811798 
	C40.746098,64.718460 40.886444,63.841980 41.016235,62.978451 
	C41.005680,62.991402 40.977921,63.009716 41.195435,63.254951 
	C41.613056,63.412361 41.813164,63.324528 42.280132,63.021870 
	C44.046944,60.203220 45.546898,57.599392 47.046852,54.995560 
	C48.456322,53.303669 49.865788,51.611778 51.949139,49.720390 
	C54.187622,48.743092 55.752220,47.965294 57.316818,47.187500 
	C58.402073,46.410976 59.487328,45.634457 60.766544,44.567810 
	C60.960506,44.277687 60.981407,44.317848 60.981407,44.317848 
	C61.999859,43.587917 63.018311,42.857990 64.121849,41.728699 
	C64.206932,41.329334 64.271019,41.338810 64.271019,41.338810 
	C68.902390,39.348301 73.582207,37.462578 78.156158,35.347874 
	C92.590347,28.674431 107.872337,28.173649 123.779022,29.404301 
	C123.872169,30.620356 123.533806,31.392410 122.932968,32.468719 
	C118.436356,32.848022 114.198837,32.840099 109.968636,33.012012 
	C87.911194,33.908432 69.554001,42.709576 54.964729,59.207954 
	C53.121082,61.292858 52.242439,64.231102 50.587364,66.858627 
	C49.750549,67.596802 49.243076,68.250343 48.447445,69.071716 
	C45.634346,73.261963 42.555393,77.046013 40.700626,81.356781 
	C36.923546,90.135315 33.259422,99.068748 34.008575,109.287651 
	C34.117691,110.052162 34.265694,110.529305 34.837681,112.373299 
	C34.935478,110.266396 34.964909,109.632332 35.176407,108.751068 
	C37.780704,95.724190 42.587921,83.843063 50.399761,73.509018 
	C68.655472,49.359104 92.745453,38.441704 123.331833,43.128864 
	C124.984894,47.600216 126.462227,51.731289 127.515823,55.906921 
	C117.112869,55.982800 107.133652,56.014126 96.909668,56.120979 
	C96.424812,56.433460 96.184731,56.670410 95.556839,56.791183 
	C93.115288,57.288830 90.989227,57.727886 89.018875,58.543217 
	C66.699966,67.778801 49.784237,94.738358 50.981407,119.268341 
	C50.954796,119.515327 51.076355,119.997620 51.018585,120.426170 
	C51.103138,122.567413 51.245457,124.280106 51.349770,126.336914 
	C51.800518,128.177582 52.289265,129.674149 52.802563,131.116333 
	C52.827114,131.061981 52.716763,131.107285 52.720825,131.470016 
	C53.070969,132.429291 53.417046,133.025848 53.612629,133.703552 
	C53.462132,133.784714 53.518585,134.121979 53.587803,134.452042 
	C53.970745,135.076935 54.284470,135.371780 54.422699,135.880585 
	C54.327103,136.441452 54.407009,136.788376 54.541859,137.482361 
	C55.077782,138.881287 55.558762,139.933136 56.061119,141.311371 
	C56.903030,143.111206 57.723553,144.584686 58.671303,146.397461 
	C63.585175,155.065430 69.525383,162.341721 77.999725,167.748260 
	C92.051331,177.802673 107.400909,179.830002 124.050011,176.896652 
	C124.604408,176.575424 124.829826,176.284805 125.027290,175.989792 
	C124.999336,175.985397 124.989128,176.040833 125.361481,176.224365 
	C141.450333,171.955811 152.560287,162.263947 159.236862,146.968750 
	C160.969009,139.998825 163.433975,133.291168 163.609543,126.524132 
	C163.838776,117.688385 160.895584,109.457611 153.046829,103.973022 
	C153.046829,103.973022 152.962997,103.959969 153.107086,103.944305 
	C153.464203,103.847931 153.641678,103.718513 153.783615,103.540382 
	C163.061356,99.248245 172.334076,94.945251 181.619034,90.668777 
	C185.921509,88.687149 190.247757,86.757156 194.553452,84.808167 
	C202.161560,95.629578 204.800644,107.236450 205.959488,119.203827 
	C207.777252,137.975845 202.276733,155.023270 193.020416,171.117203 
	C191.149261,174.370590 189.803406,177.926102 187.756454,181.682526 
	C186.233368,183.360413 185.169189,184.698090 184.105011,186.035767 
z"/>
<path fill="#E30202" opacity="1.000000" stroke="none" 
	d="
M123.195442,32.164463 
	C123.533806,31.392410 123.872169,30.620356 124.257256,29.513725 
	C124.303986,29.179152 124.213158,29.067043 124.442810,29.050316 
	C124.819527,28.689142 124.966606,28.344696 125.113678,28.000252 
	C125.113678,28.000252 125.274155,27.856804 125.501099,27.545437 
	C125.751434,26.822105 125.774818,26.410137 125.798210,25.998171 
	C125.841606,25.806618 125.885002,25.615067 125.987091,25.027325 
	C126.045784,24.631132 125.965546,24.379230 126.230194,24.223059 
	C126.916100,23.710684 127.337357,23.354481 127.758606,22.998276 
	C127.758606,22.998274 128.086273,22.710382 128.369629,22.334114 
	C129.349243,20.970028 130.045471,19.982212 130.741699,18.994392 
	C144.933014,4.938949 162.875992,7.525976 173.439590,17.067352 
	C182.992584,25.695934 186.730759,42.623383 180.553177,52.802113 
	C172.488449,66.090324 158.787842,72.843750 141.678070,66.983307 
	C139.627319,66.092682 138.249924,65.415489 136.663559,64.478745 
	C133.616257,61.433586 130.777908,58.647976 127.939560,55.862366 
	C126.462227,51.731289 124.984894,47.600216 123.399643,42.755192 
	C123.259636,38.748981 123.227539,35.456722 123.195442,32.164463 
z"/>
<path fill="#1C539E" opacity="1.000000" stroke="none" 
	d="
M136.872513,64.738297 
	C138.249924,65.415489 139.627319,66.092682 141.328522,66.993607 
	C138.576157,73.984161 135.500000,80.750977 132.272446,87.850830 
	C137.986664,93.292473 143.733429,98.765129 150.000519,104.629166 
	C151.215378,105.821846 151.909897,106.623138 152.811768,107.663658 
	C150.115707,107.663658 147.787659,107.663658 145.070099,107.472168 
	C139.046677,106.747597 133.352371,106.552628 127.800400,105.560844 
	C124.186691,104.915306 122.504166,105.719528 120.943329,109.097351 
	C117.462326,116.630615 113.429787,123.909019 109.022987,132.452560 
	C107.497467,123.546570 105.997040,116.053024 105.000786,108.493027 
	C104.409340,104.004860 102.701324,102.121445 97.883568,101.901901 
	C90.253845,101.554222 82.668686,100.228355 75.064674,99.316383 
	C82.422768,94.215462 89.736092,89.970612 97.237976,86.090309 
	C99.802361,84.763901 100.514549,83.287666 99.970184,80.609131 
	C98.778648,74.746109 97.769897,68.845924 96.744003,62.729492 
	C96.801506,62.498058 96.616081,62.058636 96.664993,61.692024 
	C96.457489,59.852730 96.201073,58.380047 95.944656,56.907364 
	C96.184731,56.670410 96.424812,56.433460 97.023903,56.418106 
	C99.216362,58.108238 101.049805,59.576775 103.018158,61.269016 
	C103.425560,61.698601 103.698044,61.904476 104.088921,62.421013 
	C107.893471,66.098465 111.732758,69.316292 115.207886,72.888390 
	C117.264702,75.002586 118.815193,74.921036 121.193344,73.484283 
	C126.312553,70.391541 131.633896,67.633385 136.872513,64.738297 
z"/>
<path fill="#FDC90D" opacity="1.000000" stroke="none" 
	d="
M145.459625,107.663658 
	C147.787659,107.663658 150.115707,107.663658 152.811768,107.663658 
	C151.909897,106.623138 151.215378,105.821846 150.324310,104.798119 
	C150.846222,104.348984 151.564682,104.122292 152.664993,103.934311 
	C160.895584,109.457611 163.838776,117.688385 163.609543,126.524132 
	C163.433975,133.291168 160.969009,139.998825 158.851929,146.904449 
	C139.604950,144.891220 130.991776,122.079552 145.459625,107.663658 
z"/>
<path fill="#D1EAF0" opacity="1.000000" stroke="none" 
	d="
M35.205635,73.530487 
	C32.412834,80.203918 29.620035,86.877357 26.200775,93.792877 
	C25.042257,94.044868 24.510204,94.054764 23.978149,94.064659 
	C25.499115,90.263161 27.020081,86.461662 29.035152,82.256378 
	C29.672405,81.225464 29.815550,80.598335 29.958693,79.971207 
	C29.958693,79.971207 29.997286,80.002441 30.267178,79.900940 
	C30.752481,79.242531 30.967894,78.685623 31.405178,77.881012 
	C32.075161,76.405602 32.523277,75.177895 32.971390,73.950195 
	C32.971390,73.950195 32.997952,74.001183 33.268600,73.924622 
	C34.013153,73.188950 34.487057,72.529831 35.016190,72.286530 
	C35.116161,72.978394 35.160900,73.254440 35.205635,73.530487 
z"/>
<path fill="#CDE9F0" opacity="1.000000" stroke="none" 
	d="
M207.938507,137.036606 
	C207.938507,128.222153 207.938507,119.407715 207.938507,110.593262 
	C208.623627,110.597168 209.308762,110.601067 209.993881,110.604973 
	C209.993881,116.763939 209.993881,122.922897 209.709015,129.797119 
	C208.928925,132.687119 208.433716,134.861862 207.938507,137.036606 
z"/>
<path fill="#72C0D1" opacity="1.000000" stroke="none" 
	d="
M125.965546,24.379230 
	C125.965546,24.379230 126.045784,24.631132 125.965073,24.733540 
	C119.883850,24.936472 113.883347,25.036999 107.412750,24.794392 
	C107.073967,24.019876 107.205269,23.588493 107.336571,23.157110 
	C113.143776,23.168736 118.950974,23.180361 125.308594,23.476206 
	C125.894531,23.966694 125.930038,24.172962 125.965546,24.379230 
z"/>
<path fill="#F7FBFC" opacity="1.000000" stroke="none" 
	d="
M44.377335,182.449127 
	C47.173687,185.322861 49.970039,188.196609 52.940262,191.332031 
	C52.560768,192.569626 52.007404,193.545517 51.217636,193.969223 
	C50.649429,192.946548 50.317627,192.476059 49.985825,192.005569 
	C49.985821,192.005569 50.000458,191.999390 49.943878,191.743683 
	C49.585209,191.322983 49.283127,191.157974 48.981041,190.992981 
	C48.981037,190.992981 49.005753,190.992538 48.856544,190.730377 
	C48.131561,190.312012 47.555786,190.155792 46.980015,189.999573 
	C46.980015,189.999573 47.003269,189.996658 47.031471,189.697815 
	C46.700176,188.925461 46.340679,188.451935 45.981182,187.978409 
	C45.981182,187.978409 46.009808,187.992584 45.915726,187.769043 
	C45.541328,187.359314 45.261017,187.173111 44.980705,186.986908 
	C44.980705,186.986908 45.007198,186.991226 44.861839,186.727997 
	C44.136730,186.308014 43.556976,186.151260 42.977222,185.994522 
	C42.977222,185.994522 43.005463,185.994217 43.060528,185.604248 
	C43.536175,184.292557 43.956757,183.370850 44.377335,182.449127 
z"/>
<path fill="#CAE8EE" opacity="1.000000" stroke="none" 
	d="
M105.079666,217.511169 
	C108.067673,216.863724 111.179420,216.594116 114.944626,216.496750 
	C116.780754,216.776550 117.963417,216.884094 119.146080,216.991638 
	C114.703674,220.478287 109.967674,219.403275 105.079666,217.511169 
z"/>
<path fill="#F7FBFC" opacity="1.000000" stroke="none" 
	d="
M16.010454,124.404205 
	C15.998849,120.540344 15.998849,117.098801 15.998849,113.657257 
	C16.626259,113.661804 17.253670,113.666351 17.881081,113.670898 
	C17.881081,117.590889 17.881081,121.510872 17.881081,125.430862 
	C17.261408,125.229416 16.641733,125.027969 16.010454,124.404205 
z"/>
<path fill="#ABDAE4" opacity="1.000000" stroke="none" 
	d="
M44.272682,182.170868 
	C43.956757,183.370850 43.536175,184.292557 43.060524,185.618347 
	C41.275734,184.078323 39.477146,182.187637 37.885448,180.136429 
	C37.626343,179.802505 38.282410,178.758469 38.838120,177.943176 
	C39.160763,177.843719 39.124226,177.922806 39.073643,178.259430 
	C39.797489,178.659973 40.571922,178.723907 41.346352,178.787857 
	C42.286907,179.822784 43.227470,180.857712 44.272682,182.170868 
z"/>
<path fill="#D2EBF1" opacity="1.000000" stroke="none" 
	d="
M46.669647,54.970459 
	C45.546898,57.599392 44.046944,60.203220 42.212151,62.781487 
	C41.738098,62.442596 41.520214,62.199936 41.234283,61.755539 
	C41.177166,61.314499 41.109425,61.145859 41.041687,60.977215 
	C42.791939,58.966595 44.542187,56.955975 46.669647,54.970459 
z"/>
<path fill="#F4FAFB" opacity="1.000000" stroke="none" 
	d="
M119.337196,216.995026 
	C117.963417,216.884094 116.780754,216.776550 115.350777,216.421631 
	C118.104614,216.102127 121.105774,216.029984 124.808502,216.279175 
	C126.988983,216.729248 128.467880,216.857986 129.946793,216.986740 
	C130.134125,216.995865 130.321472,217.004974 130.768463,217.273315 
	C131.028122,217.532562 130.991165,218.021255 130.991165,218.021255 
	C130.991165,218.021255 130.999268,217.996414 130.561981,218.001862 
	C126.719894,217.665573 123.315079,217.323853 119.910263,216.982147 
	C119.910263,216.982147 119.528313,216.998413 119.337196,216.995026 
z"/>
<path fill="#EBF6F9" opacity="1.000000" stroke="none" 
	d="
M207.833435,137.289108 
	C208.433716,134.861862 208.928925,132.687119 209.699646,130.249084 
	C210.313202,131.885834 210.977585,133.813156 210.822296,135.671997 
	C210.763443,136.376434 208.815338,136.923050 207.833435,137.289108 
z"/>
<path fill="#EBF6F9" opacity="1.000000" stroke="none" 
	d="
M204.018799,154.154449 
	C204.102936,152.734543 204.209137,151.647995 204.384186,149.857147 
	C205.938919,150.752289 207.029724,151.380310 209.423218,152.758377 
	C206.754852,153.615768 205.397858,154.051788 204.018799,154.154449 
z"/>
<path fill="#F0F8FA" opacity="1.000000" stroke="none" 
	d="
M57.020607,47.009048 
	C55.752220,47.965294 54.187622,48.743092 52.296234,49.606003 
	C52.659367,47.249771 52.403664,43.236549 57.020607,47.009048 
z"/>
<path fill="#D2EBF1" opacity="1.000000" stroke="none" 
	d="
M17.984240,107.530624 
	C17.991282,105.161728 17.991282,103.205612 17.991282,101.249489 
	C18.167021,101.259216 18.342762,101.268944 18.518501,101.278664 
	C18.518501,104.655418 18.518501,108.032173 18.518501,111.408920 
	C18.196939,111.388435 17.875378,111.367958 17.553816,111.347473 
	C17.694942,110.212784 17.836071,109.078102 17.984240,107.530624 
z"/>
<path fill="#C5E6ED" opacity="1.000000" stroke="none" 
	d="
M110.745697,18.000322 
	C112.473587,18.072094 113.767014,18.143660 115.060440,18.215227 
	C115.052750,18.390642 115.045059,18.566059 115.037369,18.741474 
	C111.017860,18.741474 106.998352,18.741474 102.978851,18.741474 
	C102.976303,18.494356 102.973763,18.247236 102.971214,18.000118 
	C105.417892,18.000118 107.864563,18.000118 110.745697,18.000322 
z"/>
<path fill="#F7FBFC" opacity="1.000000" stroke="none" 
	d="
M72.182129,209.039795 
	C71.908928,208.370483 71.925049,207.860840 71.941162,207.351196 
	C73.563660,208.108017 75.186157,208.864853 76.808647,209.621674 
	C76.627220,210.003738 76.445786,210.385788 76.264359,210.767838 
	C75.000053,210.245056 73.735748,209.722260 72.182129,209.039795 
z"/>
<path fill="#CAE8EE" opacity="1.000000" stroke="none" 
	d="
M120.001587,217.381775 
	C123.315079,217.323853 126.719894,217.665573 130.574936,218.000153 
	C127.381081,217.922485 123.736992,217.851944 120.001587,217.381775 
z"/>
<path fill="#D2EBF1" opacity="1.000000" stroke="none" 
	d="
M19.608509,97.935799 
	C19.440544,95.984039 19.554613,93.871040 19.668680,91.758034 
	C20.164841,91.829231 20.661001,91.900429 21.157162,91.971634 
	C20.734957,93.905937 20.312750,95.840248 19.608509,97.935799 
z"/>
<path fill="#F0F8FA" opacity="1.000000" stroke="none" 
	d="
M106.956833,23.107313 
	C107.205269,23.588493 107.073967,24.019876 106.940567,24.790989 
	C105.639893,25.480696 104.341316,25.830673 103.042740,26.180651 
	C102.898201,25.799662 102.753662,25.418673 102.609123,25.037682 
	C103.931786,24.377626 105.254440,23.717571 106.956833,23.107313 
z"/>
<path fill="#F4FAFB" opacity="1.000000" stroke="none" 
	d="
M184.442139,185.992645 
	C185.169189,184.698090 186.233368,183.360413 187.640656,181.989746 
	C186.915604,183.287674 185.847443,184.618607 184.442139,185.992645 
z"/>
<path fill="#F7FBFC" opacity="1.000000" stroke="none" 
	d="
M130.344604,18.993582 
	C130.045471,19.982212 129.349243,20.970028 128.389694,22.116951 
	C127.542465,21.705137 126.958549,21.134218 126.188828,20.048073 
	C125.992966,19.359552 125.982910,19.186255 125.972847,19.012955 
	C127.297737,19.006227 128.622620,18.999498 130.344604,18.993582 
z"/>
<path fill="#C5E6ED" opacity="1.000000" stroke="none" 
	d="
M125.534050,19.008392 
	C125.982910,19.186255 125.992966,19.359552 126.006866,19.793816 
	C123.306969,20.054783 120.603218,20.054783 117.899475,20.054783 
	C117.900269,19.704464 117.901070,19.354147 117.901863,19.003828 
	C120.299660,19.003828 122.697456,19.003828 125.534050,19.008392 
z"/>
<path fill="#F4FAFB" opacity="1.000000" stroke="none" 
	d="
M173.137573,196.970078 
	C173.608871,196.217499 174.399490,195.513947 175.487366,194.686188 
	C175.942062,195.716858 176.099457,196.871719 176.256851,198.026596 
	C175.323532,197.690765 174.390198,197.354935 173.137573,196.970078 
z"/>
<path fill="#D7EDF2" opacity="1.000000" stroke="none" 
	d="
M129.973816,216.737305 
	C128.467880,216.857986 126.988983,216.729248 125.258682,216.330170 
	C126.467941,215.771927 127.928596,215.484009 129.746307,215.344055 
	C130.069183,215.823990 130.035019,216.155930 129.973816,216.737305 
z"/>
<path fill="#EBF6F9" opacity="1.000000" stroke="none" 
	d="
M208.226624,143.611511 
	C207.388397,143.652313 206.711243,143.451294 206.034088,143.250275 
	C206.248596,142.681458 206.463104,142.112656 206.677612,141.543839 
	C207.247650,142.152466 207.817673,142.761093 208.226624,143.611511 
z"/>
<path fill="#D1EAF0" opacity="1.000000" stroke="none" 
	d="
M24.471352,99.953125 
	C24.451180,100.612068 24.105103,101.283302 23.447968,101.999969 
	C23.473089,101.352074 23.809269,100.658737 24.471352,99.953125 
z"/>
<path fill="#4BB3C8" opacity="1.000000" stroke="none" 
	d="
M32.624222,73.894081 
	C32.523277,75.177895 32.075161,76.405602 31.107906,77.860947 
	C30.392576,78.059631 30.196392,78.030678 30.000208,78.001732 
	C30.759155,76.613808 31.518103,75.225883 32.624222,73.894081 
z"/>
<path fill="#F7FBFC" opacity="1.000000" stroke="none" 
	d="
M62.070076,202.878998 
	C61.460995,202.353561 61.144611,201.883087 60.828232,201.412628 
	C61.436188,201.407104 62.044144,201.401566 62.652100,201.396027 
	C62.555656,201.908676 62.459213,202.421310 62.070076,202.878998 
z"/>
<path fill="#4BB3C8" opacity="1.000000" stroke="none" 
	d="
M34.960957,71.870712 
	C34.487057,72.529831 34.013153,73.188950 33.240364,73.919250 
	C33.253860,72.776291 33.566246,71.562134 34.484711,70.141678 
	C35.331398,69.944344 35.572006,69.953316 35.829788,70.237793 
	C35.906898,70.687302 35.966835,70.861298 36.026768,71.035294 
	C36.026768,71.035294 35.998035,71.001602 35.759888,71.016006 
	C35.334812,71.310509 35.147884,71.590607 34.960957,71.870712 
z"/>
<path fill="#CAE8EE" opacity="1.000000" stroke="none" 
	d="
M131.391403,218.019562 
	C130.991165,218.021255 131.028122,217.532562 131.049377,217.288879 
	C132.662598,217.045197 134.254578,217.045197 135.846542,217.045197 
	C135.875153,217.369415 135.903763,217.693649 135.932373,218.017868 
	C134.552124,218.017868 133.171890,218.017868 131.391403,218.019562 
z"/>
<path fill="#F0F8FA" opacity="1.000000" stroke="none" 
	d="
M60.948448,43.943954 
	C60.981407,44.317848 60.960506,44.277687 60.955482,44.288193 
	C60.096649,44.026524 59.242847,43.754353 58.389042,43.482182 
	C58.572681,43.107338 58.756317,42.732498 58.939953,42.357655 
	C59.598465,42.761791 60.256973,43.165924 60.948448,43.943954 
z"/>
<path fill="#EBF6F9" opacity="1.000000" stroke="none" 
	d="
M40.015862,66.028648 
	C39.716949,66.510399 39.418037,66.992149 38.709045,67.713806 
	C37.957779,67.954323 37.616589,67.954933 37.388618,67.624542 
	C37.490044,66.852493 37.478249,66.411438 37.466454,65.970390 
	C37.452980,65.777664 37.531521,65.635857 38.165878,65.506317 
	C38.808460,65.330109 38.987240,65.192566 39.361557,65.163101 
	C39.780430,65.481018 39.933350,65.733513 40.015862,66.028648 
z"/>
<path fill="#30A8C0" opacity="1.000000" stroke="none" 
	d="
M37.082954,65.971870 
	C37.478249,66.411438 37.490044,66.852493 37.174839,67.851532 
	C36.502766,68.927116 36.157688,69.444695 35.812614,69.962280 
	C35.572006,69.953316 35.331398,69.944344 34.729034,69.913261 
	C35.144676,68.585213 35.922066,67.279282 37.082954,65.971870 
z"/>
<path fill="#F7FBFC" opacity="1.000000" stroke="none" 
	d="
M33.940445,64.008591 
	C33.435143,64.151260 33.049908,64.055473 32.664673,63.959679 
	C33.146763,63.471340 33.628857,62.983002 34.110950,62.494667 
	C34.094139,62.919823 34.077324,63.344971 33.940445,64.008591 
z"/>
<path fill="#F4FAFB" opacity="1.000000" stroke="none" 
	d="
M196.391891,169.954651 
	C196.789764,169.711838 197.185623,169.713531 197.579285,169.743835 
	C197.590302,169.744690 197.577789,170.051544 197.576263,170.215698 
	C197.180695,170.211517 196.785141,170.207352 196.391891,169.954651 
z"/>
<path fill="#F7FBFC" opacity="1.000000" stroke="none" 
	d="
M23.986702,94.302185 
	C24.510204,94.054764 25.042257,94.044868 25.973839,94.055809 
	C26.127981,94.997101 25.882599,95.917549 25.389790,97.100815 
	C25.111118,97.159714 25.079876,96.955788 24.933407,96.197327 
	C24.547895,95.433502 24.277607,95.224205 24.007320,95.014900 
	C24.007320,95.014900 23.995255,94.539703 23.986702,94.302185 
z"/>
<path fill="#F7FBFC" opacity="1.000000" stroke="none" 
	d="
M18.045324,132.391510 
	C18.288284,132.789627 18.286612,133.185745 18.256289,133.579666 
	C18.255438,133.590714 17.948423,133.578201 17.784172,133.576675 
	C17.788343,133.180847 17.792515,132.785034 18.045324,132.391510 
z"/>
<path fill="#F0F8FA" opacity="1.000000" stroke="none" 
	d="
M71.078133,35.276546 
	C70.718849,35.795704 70.163986,36.150818 69.609123,36.505932 
	C69.502853,36.274914 69.396591,36.043896 69.290329,35.812878 
	C69.821068,35.579418 70.351814,35.345959 71.078133,35.276546 
z"/>
<path fill="#F7FBFC" opacity="1.000000" stroke="none" 
	d="
M30.017546,167.977463 
	C30.524979,168.289169 31.032410,168.600891 31.539835,168.912613 
	C31.356758,169.123367 31.173689,169.334122 30.990623,169.544891 
	C30.680882,169.224808 30.371138,168.904709 30.030724,168.291992 
	C30.000053,167.999374 30.017544,167.977463 30.017546,167.977463 
z"/>
<path fill="#F7FBFC" opacity="1.000000" stroke="none" 
	d="
M19.899738,136.418015 
	C19.615143,136.997772 19.314819,137.329681 19.014494,137.661606 
	C19.054688,137.100891 19.076246,136.537552 19.154324,135.982162 
	C19.166636,135.894577 19.455021,135.764404 19.578627,135.796570 
	C19.704323,135.829300 19.784115,136.038345 19.899738,136.418015 
z"/>
<path fill="#F7FBFC" opacity="1.000000" stroke="none" 
	d="
M31.853355,171.604675 
	C32.360142,171.426880 32.949272,171.477356 33.538403,171.527832 
	C33.459141,171.806824 33.379879,172.085800 33.300613,172.364807 
	C32.845642,172.187515 32.390671,172.010239 31.853355,171.604675 
z"/>
<path fill="#F7FBFC" opacity="1.000000" stroke="none" 
	d="
M34.174915,174.999054 
	C34.349102,174.648621 34.725941,174.376114 35.146881,174.239166 
	C35.227161,174.213043 35.481594,174.722244 35.655678,174.984467 
	C35.234745,175.031006 34.813820,175.077545 34.174915,174.999054 
z"/>
<path fill="#F7FBFC" opacity="1.000000" stroke="none" 
	d="
M59.238575,197.816437 
	C58.941936,198.444885 58.589302,199.083008 58.236668,199.721146 
	C57.997036,199.563385 57.757404,199.405640 57.517776,199.247894 
	C57.877895,198.805786 58.238018,198.363693 58.899620,197.817780 
	C59.201099,197.713974 59.182579,197.826111 59.238575,197.816437 
z"/>
<path fill="#F7FBFC" opacity="1.000000" stroke="none" 
	d="
M79.864731,212.333832 
	C80.502655,212.029602 81.028214,211.943405 81.553772,211.857208 
	C81.491158,212.111435 81.446648,212.578201 81.362976,212.585312 
	C80.830910,212.630646 80.290215,212.574539 79.864731,212.333832 
z"/>
<path fill="#F4FAFB" opacity="1.000000" stroke="none" 
	d="
M152.609772,212.264420 
	C152.023651,212.659882 151.506729,212.811737 150.989822,212.963593 
	C150.934250,212.736832 150.878677,212.510071 150.823120,212.283310 
	C151.441742,212.195801 152.060364,212.108292 152.609772,212.264420 
z"/>
<path fill="#D7EDF2" opacity="1.000000" stroke="none" 
	d="
M133.161316,215.276642 
	C133.513611,214.787537 134.012405,214.514816 134.795242,214.333862 
	C134.488815,214.781448 133.898315,215.137222 133.161316,215.276642 
z"/>
<path fill="#F7FBFC" opacity="1.000000" stroke="none" 
	d="
M97.983154,20.156010 
	C97.474411,20.208845 96.965660,20.261679 96.456917,20.314514 
	C96.786293,19.897343 97.115669,19.480171 97.716476,19.322163 
	C97.986328,19.772884 97.984741,19.964447 97.983154,20.156010 
z"/>
<path fill="#F7FBFC" opacity="1.000000" stroke="none" 
	d="
M25.045227,78.389534 
	C25.289064,78.789001 25.287420,79.186485 25.257030,79.581772 
	C25.256178,79.592857 24.948088,79.580315 24.783260,79.578789 
	C24.787415,79.181610 24.791571,78.784431 25.045227,78.389534 
z"/>
<path fill="#F7FBFC" opacity="1.000000" stroke="none" 
	d="
M28.995380,69.996819 
	C29.300385,69.486282 29.605389,68.975754 29.910393,68.465218 
	C30.120872,68.647705 30.331352,68.830185 30.541832,69.012672 
	C30.219458,69.319542 29.897085,69.626411 29.287388,69.966675 
	C29.000067,70.000053 28.995380,69.996819 28.995380,69.996819 
z"/>
<path fill="#CAE8EE" opacity="1.000000" stroke="none" 
	d="
M40.310806,65.811798 
	C39.933350,65.733513 39.780430,65.481018 39.422554,64.876816 
	C39.367355,64.304169 39.446701,64.125885 39.526047,63.947601 
	C39.408310,63.729233 39.462967,63.569637 40.063461,63.305382 
	C40.633530,63.083141 40.830158,63.024319 41.026791,62.965500 
	C40.886444,63.841980 40.746098,64.718460 40.310806,65.811798 
z"/>
<path fill="#F0F8FA" opacity="1.000000" stroke="none" 
	d="
M98.508438,26.535511 
	C98.088776,26.610191 97.829788,26.527292 97.570801,26.444393 
	C97.860100,26.161417 98.149406,25.878441 98.438713,25.595463 
	C98.515511,25.856287 98.592316,26.117109 98.508438,26.535511 
z"/>
<path fill="#F7FBFC" opacity="1.000000" stroke="none" 
	d="
M24.159391,154.297272 
	C24.500725,154.581100 24.621128,154.833588 24.741531,155.086075 
	C24.498669,155.158646 24.255806,155.231216 24.012943,155.303787 
	C23.988117,154.957825 23.963289,154.611877 24.159391,154.297272 
z"/>
<path fill="#F7FBFC" opacity="1.000000" stroke="none" 
	d="
M21.776646,148.389008 
	C22.208895,148.530762 22.472675,148.806641 22.713907,149.100998 
	C22.723818,149.113083 22.521921,149.298737 22.418697,149.403519 
	C22.147175,149.111160 21.875652,148.818817 21.776646,148.389008 
z"/>
<path fill="#EBF6F9" opacity="1.000000" stroke="none" 
	d="
M205.741776,148.364685 
	C205.565659,148.047546 205.607407,147.686981 205.649170,147.326416 
	C205.900177,147.415573 206.151199,147.504730 206.402206,147.593887 
	C206.254684,147.836349 206.107162,148.078812 205.741776,148.364685 
z"/>
<path fill="#F0F8FA" opacity="1.000000" stroke="none" 
	d="
M64.082382,41.062912 
	C64.271019,41.338810 64.206932,41.329334 64.188766,41.347389 
	C63.539146,41.066269 62.907692,40.767094 62.276241,40.467918 
	C62.391624,40.266266 62.507011,40.064613 62.622398,39.862961 
	C63.046181,40.170979 63.469963,40.478996 64.082382,41.062912 
z"/>
<path fill="#F7FBFC" opacity="1.000000" stroke="none" 
	d="
M18.358711,128.893066 
	C18.637186,129.166672 18.752043,129.573288 18.809492,129.987869 
	C18.819380,130.059219 18.585131,130.164383 18.463654,130.253937 
	C18.367666,129.845551 18.271677,129.437149 18.358711,128.893066 
z"/>
<path fill="#F4FAFB" opacity="1.000000" stroke="none" 
	d="
M170.512222,200.021851 
	C171.347458,200.047592 172.192993,200.107269 173.038544,200.166946 
	C172.998489,200.400864 172.958435,200.634796 172.918396,200.868713 
	C172.285461,200.706879 171.652542,200.545059 170.742981,200.193024 
	C170.466339,200.002823 170.522522,200.055786 170.512222,200.021851 
z"/>
<path fill="#F7FBFC" opacity="1.000000" stroke="none" 
	d="
M74.219345,29.607258 
	C73.791252,29.466646 73.529991,29.193035 73.290901,28.901258 
	C73.281273,28.889519 73.481453,28.705845 73.583885,28.602278 
	C73.852623,28.891865 74.121368,29.181450 74.219345,29.607258 
z"/>
<path fill="#F7FBFC" opacity="1.000000" stroke="none" 
	d="
M36.120407,59.723843 
	C36.220589,59.247478 36.360661,58.997547 36.500732,58.747620 
	C36.640324,58.997219 36.943169,59.308262 36.878201,59.480865 
	C36.796917,59.696815 36.413361,59.798988 36.120407,59.723843 
z"/>
<path fill="#C5E6ED" opacity="1.000000" stroke="none" 
	d="
M98.299698,20.112602 
	C97.984741,19.964447 97.986328,19.772884 98.002045,19.294388 
	C98.769600,19.057962 99.523026,19.108471 100.276459,19.158978 
	C100.284073,19.338135 100.291695,19.517292 100.299316,19.696449 
	C99.738289,19.820698 99.177269,19.944946 98.299698,20.112602 
z"/>
<path fill="#F7FBFC" opacity="1.000000" stroke="none" 
	d="
M87.445297,22.743700 
	C87.861153,22.874949 88.127129,23.158953 88.393105,23.442955 
	C88.281380,23.532005 88.085815,23.711090 88.070389,23.696728 
	C87.798996,23.444008 87.549591,23.167673 87.445297,22.743700 
z"/>
<path fill="#ABDAE4" opacity="1.000000" stroke="none" 
	d="
M47.115685,190.283691 
	C47.555786,190.155792 48.131561,190.312012 48.859116,190.742462 
	C48.424381,190.867081 47.837868,190.717453 47.115685,190.283691 
z"/>
<path fill="#F0F8FA" opacity="1.000000" stroke="none" 
	d="
M79.350937,31.269211 
	C79.365662,31.009663 79.504547,30.867767 79.643440,30.725870 
	C79.587326,30.946201 79.531212,31.166531 79.350937,31.269211 
z"/>
<path fill="#ABDAE4" opacity="1.000000" stroke="none" 
	d="
M45.960804,188.291183 
	C46.340679,188.451935 46.700176,188.925461 47.030159,189.709442 
	C46.647236,189.547913 46.293831,189.075943 45.960804,188.291183 
z"/>
<path fill="#30A8C0" opacity="1.000000" stroke="none" 
	d="
M41.016235,62.978451 
	C40.830158,63.024319 40.633530,63.083141 40.202354,63.341343 
	C40.021912,62.771263 40.076015,62.001804 40.585907,61.104778 
	C41.109425,61.145859 41.177166,61.314499 41.110527,61.985386 
	C40.976734,62.661659 40.977325,62.835686 40.977921,63.009716 
	C40.977921,63.009716 41.005680,62.991402 41.016235,62.978451 
z"/>
<path fill="#F7FBFC" opacity="1.000000" stroke="none" 
	d="
M66.989151,205.238571 
	C67.100945,205.407516 67.046150,205.578247 66.991348,205.748978 
	C66.935089,205.579437 66.878830,205.409897 66.989151,205.238571 
z"/>
<path fill="#F7FBFC" opacity="1.000000" stroke="none" 
	d="
M29.002491,70.002472 
	C28.880049,70.437386 28.755182,70.869896 28.630318,71.302399 
	C28.614365,70.949402 28.598415,70.596397 28.788923,70.120110 
	C28.995380,69.996819 29.000067,70.000053 29.002491,70.002472 
z"/>
<path fill="#ABDAE4" opacity="1.000000" stroke="none" 
	d="
M43.128265,186.268982 
	C43.556976,186.151260 44.136730,186.308014 44.866089,186.740723 
	C44.436901,186.858932 43.858105,186.701187 43.128265,186.268982 
z"/>
<path fill="#ABDAE4" opacity="1.000000" stroke="none" 
	d="
M49.955521,192.313843 
	C50.317627,192.476059 50.649429,192.946548 50.995613,193.731995 
	C50.648403,193.572021 50.286808,193.097061 49.955521,192.313843 
z"/>
<path fill="#72C0D1" opacity="1.000000" stroke="none" 
	d="
M29.873257,78.327469 
	C30.196392,78.030678 30.392576,78.059631 30.886034,78.108658 
	C30.967894,78.685623 30.752481,79.242531 30.244846,79.888039 
	C29.883848,79.535500 29.815075,79.094360 29.873257,78.327469 
z"/>
<path fill="#F7FBFC" opacity="1.000000" stroke="none" 
	d="
M90.446793,213.426819 
	C90.846428,213.020340 91.142281,213.023438 91.650528,213.144958 
	C91.356850,213.400604 90.850212,213.591599 90.446793,213.426819 
z"/>
<path fill="#72C0D1" opacity="1.000000" stroke="none" 
	d="
M29.599319,80.030670 
	C29.815550,80.598335 29.672405,81.225464 29.231907,82.006767 
	C29.036352,81.470673 29.138149,80.780403 29.599319,80.030670 
z"/>
<path fill="#D2EBF1" opacity="1.000000" stroke="none" 
	d="
M21.339310,89.318039 
	C21.354303,89.018867 21.505421,88.856224 21.656538,88.693573 
	C21.596169,88.947235 21.535799,89.200890 21.339310,89.318039 
z"/>
<path fill="#F0F8FA" opacity="1.000000" stroke="none" 
	d="
M126.230194,24.223059 
	C125.930038,24.172962 125.894531,23.966694 125.754913,23.464333 
	C126.118927,23.113070 126.587036,23.057898 127.406876,23.000500 
	C127.337357,23.354481 126.916100,23.710684 126.230194,24.223059 
z"/>
<path fill="#F7FBFC" opacity="1.000000" stroke="none" 
	d="
M47.644676,46.739685 
	C47.629765,46.992043 47.494392,47.129738 47.359016,47.267433 
	C47.414085,47.053295 47.469151,46.839157 47.644676,46.739685 
z"/>
<path fill="#F7FBFC" opacity="1.000000" stroke="none" 
	d="
M42.260838,52.644188 
	C42.008644,52.629517 41.871040,52.494392 41.733437,52.359268 
	C41.947433,52.414089 42.161430,52.468914 42.260838,52.644188 
z"/>
<path fill="#F7FBFC" opacity="1.000000" stroke="none" 
	d="
M78.465347,27.448254 
	C78.522354,27.413971 78.408340,27.482538 78.465347,27.448254 
z"/>
<path fill="#F7FBFC" opacity="1.000000" stroke="none" 
	d="
M27.448170,73.532715 
	C27.413849,73.475456 27.482489,73.589966 27.448170,73.532715 
z"/>
<path fill="#F7FBFC" opacity="1.000000" stroke="none" 
	d="
M54.532524,196.551407 
	C54.475780,196.585358 54.589272,196.517456 54.532524,196.551407 
z"/>
<path fill="#30A8C0" opacity="1.000000" stroke="none" 
	d="
M39.019348,63.785427 
	C39.446701,64.125885 39.367355,64.304169 39.227016,64.768738 
	C38.987240,65.192566 38.808460,65.330109 38.291813,65.485580 
	C38.140175,64.876755 38.326412,64.250008 39.019348,63.785427 
z"/>
<path fill="#F0F8FA" opacity="1.000000" stroke="none" 
	d="
M94.449280,25.535202 
	C94.415833,25.479082 94.482727,25.591324 94.449280,25.535202 
z"/>
<path fill="#F4FAFB" opacity="1.000000" stroke="none" 
	d="
M165.998505,205.001831 
	C165.661133,204.776260 165.323761,204.550690 164.760193,204.115845 
	C164.534012,203.906570 164.643509,203.872940 164.645020,203.817078 
	C164.993225,203.992798 165.339951,204.224380 165.843323,204.727966 
	C166.000000,205.000000 165.998505,205.001831 165.998505,205.001831 
z"/>
<path fill="#F4FAFB" opacity="1.000000" stroke="none" 
	d="
M166.000916,204.999268 
	C166.122986,205.141632 166.244141,205.284744 166.365295,205.427841 
	C166.278976,205.378540 166.192673,205.329239 166.052429,205.140869 
	C165.998505,205.001831 166.000000,205.000000 166.000916,204.999268 
z"/>
<path fill="#F0F8FA" opacity="1.000000" stroke="none" 
	d="
M125.597153,26.226799 
	C125.774818,26.410137 125.751434,26.822105 125.482162,27.439497 
	C125.289536,27.248425 125.342812,26.851927 125.597153,26.226799 
z"/>
<path fill="#F0F8FA" opacity="1.000000" stroke="none" 
	d="
M77.441284,32.540325 
	C77.400246,32.475521 77.482315,32.605129 77.441284,32.540325 
z"/>
<path fill="#D1EAF0" opacity="1.000000" stroke="none" 
	d="
M24.116955,95.247566 
	C24.277607,95.224205 24.547895,95.433502 24.916040,95.888359 
	C24.751463,95.916016 24.489027,95.698128 24.116955,95.247566 
z"/>
<path fill="#D2EBF1" opacity="1.000000" stroke="none" 
	d="
M22.533733,86.570854 
	C22.466314,86.614159 22.601151,86.527550 22.533733,86.570854 
z"/>
<path fill="#FDC90D" opacity="1.000000" stroke="none" 
	d="
M153.623444,103.587181 
	C153.641678,103.718513 153.464203,103.847931 153.092499,103.984131 
	C153.077972,103.862198 153.254471,103.726982 153.623444,103.587181 
z"/>
<path fill="#F0F8FA" opacity="1.000000" stroke="none" 
	d="
M66.461670,38.445541 
	C66.521507,38.409035 66.401840,38.482048 66.461670,38.445541 
z"/>
<path fill="#F0F8FA" opacity="1.000000" stroke="none" 
	d="
M93.447144,27.535751 
	C93.410423,27.476086 93.483871,27.595417 93.447144,27.535751 
z"/>
<path fill="#F7FBFC" opacity="1.000000" stroke="none" 
	d="
M29.989223,168.008179 
	C29.859161,167.863297 29.739931,167.709610 29.620701,167.555939 
	C29.712839,167.603180 29.804979,167.650406 29.957333,167.837555 
	C30.017544,167.977463 30.000053,167.999374 29.989223,168.008179 
z"/>
<path fill="#F0F8FA" opacity="1.000000" stroke="none" 
	d="
M85.557785,29.458628 
	C85.600487,29.525034 85.515083,29.392221 85.557785,29.458628 
z"/>
<path fill="#F0F8FA" opacity="1.000000" stroke="none" 
	d="
M124.878006,28.100101 
	C124.966606,28.344696 124.819527,28.689142 124.373489,29.030323 
	C124.263786,28.751354 124.453056,28.475653 124.878006,28.100101 
z"/>
<path fill="#ABDAE4" opacity="1.000000" stroke="none" 
	d="
M45.038765,187.254166 
	C45.261017,187.173111 45.541328,187.359314 45.920235,187.784363 
	C45.711498,187.855957 45.404163,187.688690 45.038765,187.254166 
z"/>
<path fill="#ABDAE4" opacity="1.000000" stroke="none" 
	d="
M49.009480,191.272644 
	C49.283127,191.157974 49.585209,191.322983 49.939690,191.750458 
	C49.674026,191.859406 49.355972,191.705856 49.009480,191.272644 
z"/>
<path fill="#FDFDFD" opacity="1.000000" stroke="none" 
	d="
M145.070099,107.472168 
	C130.991776,122.079552 139.604950,144.891220 158.566467,147.140305 
	C152.560287,162.263947 141.450333,171.955811 125.427315,175.890167 
	C130.040283,170.809784 134.959778,166.247147 140.797638,160.832748 
	C132.321152,161.709305 125.227943,162.325119 118.171394,163.227600 
	C115.140312,163.615250 113.767815,162.545197 112.584297,159.780350 
	C109.929222,153.577728 106.823341,147.568085 103.433289,140.505432 
	C101.763031,147.749893 100.064514,153.818359 99.045799,159.998886 
	C98.383316,164.018204 96.531647,165.608490 92.615692,165.864059 
	C87.649437,166.188156 82.711754,166.950104 77.761749,167.523254 
	C69.525383,162.341721 63.585175,155.065430 59.101738,146.398804 
	C66.437180,147.723557 73.469414,149.386276 80.863426,151.134537 
	C83.688492,139.572769 86.419243,128.397034 89.273537,116.715652 
	C78.177063,114.113060 67.588661,111.629631 56.631134,109.096512 
	C54.944687,112.031189 53.627365,115.015564 52.199398,118.211609 
	C52.088749,118.423264 51.953152,118.881279 51.716805,118.915855 
	C51.480453,118.950432 51.008022,119.021362 51.008022,119.021362 
	C49.784237,94.738358 66.699966,67.778801 89.018875,58.543217 
	C90.989227,57.727886 93.115288,57.288830 95.556839,56.791183 
	C96.201073,58.380047 96.457489,59.852730 96.553680,61.789452 
	C96.268257,62.565609 96.365936,62.801418 96.686493,62.960922 
	C97.769897,68.845924 98.778648,74.746109 99.970184,80.609131 
	C100.514549,83.287666 99.802361,84.763901 97.237976,86.090309 
	C89.736092,89.970612 82.422768,94.215462 75.064674,99.316383 
	C82.668686,100.228355 90.253845,101.554222 97.883568,101.901901 
	C102.701324,102.121445 104.409340,104.004860 105.000786,108.493027 
	C105.997040,116.053024 107.497467,123.546570 109.022987,132.452560 
	C113.429787,123.909019 117.462326,116.630615 120.943329,109.097351 
	C122.504166,105.719528 124.186691,104.915306 127.800400,105.560844 
	C133.352371,106.552628 139.046677,106.747597 145.070099,107.472168 
M71.765152,78.609032 
	C72.444893,78.126755 73.124634,77.644485 73.804375,77.162209 
	C73.498322,76.820000 73.192268,76.477791 72.886215,76.135582 
	C72.375801,76.819786 71.865395,77.503983 71.765152,78.609032 
M57.824806,104.928627 
	C57.562256,104.432121 57.299706,103.935608 57.037155,103.439102 
	C56.814556,103.619614 56.385448,103.939026 56.399712,103.960228 
	C56.719307,104.435394 57.087666,104.877769 57.824806,104.928627 
M94.179329,63.759140 
	C94.122955,63.589516 94.066574,63.419891 94.010193,63.250267 
	C93.955383,63.421032 93.900574,63.591797 94.179329,63.759140 
z"/>
<path fill="#EC3492" opacity="1.000000" stroke="none" 
	d="
M51.953152,118.881279 
	C51.953152,118.881279 52.088749,118.423264 52.558449,118.196823 
	C54.352188,115.028992 55.676220,112.087593 57.000256,109.146202 
	C67.588661,111.629631 78.177063,114.113060 89.273537,116.715652 
	C86.419243,128.397034 83.688492,139.572769 80.863426,151.134537 
	C73.469414,149.386276 66.437180,147.723557 58.974506,146.059494 
	C57.723553,144.584686 56.903030,143.111206 56.324871,141.113205 
	C57.079441,139.443466 57.591644,138.298264 58.380634,136.534210 
	C56.630886,136.804321 55.558899,136.969803 54.486916,137.135284 
	C54.407009,136.788376 54.327103,136.441452 54.557983,135.470795 
	C54.912815,134.564896 54.956867,134.282761 55.139572,133.946426 
	C55.185249,133.927887 55.092274,133.963531 54.627911,134.015289 
	C54.010544,134.061600 53.764565,134.091782 53.518585,134.121979 
	C53.518585,134.121979 53.462132,133.784714 53.661915,133.321548 
	C53.480053,132.274689 53.098408,131.690979 52.716763,131.107285 
	C52.716763,131.107285 52.827114,131.061981 52.913097,130.773041 
	C54.110443,129.820236 55.221809,129.156403 57.178806,127.987442 
	C54.077179,126.919128 52.732475,126.455963 51.387772,125.992798 
	C51.245457,124.280106 51.103138,122.567413 51.248421,120.427422 
	C51.536022,120.000122 51.997486,120.003273 52.052750,120.140602 
	C52.193478,120.326927 52.278942,120.375916 52.364410,120.424911 
	C52.244064,120.282402 52.123722,120.139893 51.997353,119.718063 
	C51.978600,119.252922 51.965874,119.067101 51.953152,118.881279 
z"/>
<path fill="#ACD750" opacity="1.000000" stroke="none" 
	d="
M77.999725,167.748260 
	C82.711754,166.950104 87.649437,166.188156 92.615692,165.864059 
	C96.531647,165.608490 98.383316,164.018204 99.045799,159.998886 
	C100.064514,153.818359 101.763031,147.749893 103.433289,140.505432 
	C106.823341,147.568085 109.929222,153.577728 112.584297,159.780350 
	C113.767815,162.545197 115.140312,163.615250 118.171394,163.227600 
	C125.227943,162.325119 132.321152,161.709305 140.797638,160.832748 
	C134.959778,166.247147 130.040283,170.809784 125.054962,175.706635 
	C124.989128,176.040833 124.999336,175.985397 124.741013,176.029922 
	C124.228806,176.358719 123.974922,176.642990 123.721031,176.927261 
	C107.400909,179.830002 92.051331,177.802673 77.999725,167.748260 
z"/>
<path fill="#F4F9FA" opacity="1.000000" stroke="none" 
	d="
M122.932968,32.468719 
	C123.227539,35.456722 123.259636,38.748981 123.223923,42.414913 
	C92.745453,38.441704 68.655472,49.359104 50.399761,73.509018 
	C42.587921,83.843063 37.780704,95.724190 34.939690,108.751617 
	C34.520905,108.999374 34.047466,109.000275 34.047466,109.000275 
	C33.259422,99.068748 36.923546,90.135315 40.700626,81.356781 
	C42.555393,77.046013 45.634346,73.261963 48.809956,69.060211 
	C49.945984,68.178574 50.431343,67.476280 50.916702,66.773987 
	C52.242439,64.231102 53.121082,61.292858 54.964729,59.207954 
	C69.554001,42.709576 87.911194,33.908432 109.968636,33.012012 
	C114.198837,32.840099 118.436356,32.848022 122.932968,32.468719 
M88.627258,40.655815 
	C88.881218,40.581131 89.135170,40.506447 89.389130,40.431759 
	C89.113541,40.149815 88.837959,39.867870 88.562386,39.585926 
	C88.481445,39.838039 88.400505,40.090153 88.627258,40.655815 
M84.002495,41.716644 
	C83.839958,41.981659 83.677422,42.246677 83.514885,42.511692 
	C83.779022,42.346695 84.043159,42.181694 84.002495,41.716644 
M78.058952,45.728786 
	C78.034492,45.386192 78.010025,45.043598 77.985565,44.701000 
	C77.744934,44.772747 77.504303,44.844494 77.263672,44.916245 
	C77.383049,45.166092 77.502426,45.415939 78.058952,45.728786 
M73.296928,46.897099 
	C73.550377,47.167622 73.799110,47.443207 74.069702,47.695328 
	C74.084976,47.709557 74.279938,47.530941 74.391266,47.442078 
	C74.126213,47.158978 73.861160,46.875881 73.296928,46.897099 
z"/>
<path fill="#FBFBFD" opacity="1.000000" stroke="none" 
	d="
M136.663559,64.478745 
	C131.633896,67.633385 126.312553,70.391541 121.193344,73.484283 
	C118.815193,74.921036 117.264702,75.002586 115.207886,72.888390 
	C111.732758,69.316292 107.893471,66.098465 103.988602,62.171280 
	C103.474350,61.422367 103.178802,61.233837 102.883255,61.045307 
	C101.049805,59.576775 99.216362,58.108238 97.268677,56.342575 
	C107.133652,56.014126 117.112869,55.982800 127.515823,55.906921 
	C130.777908,58.647976 133.616257,61.433586 136.663559,64.478745 
M111.202568,60.609146 
	C111.206757,60.214420 111.210953,59.819691 111.215141,59.424965 
	C111.051338,59.423435 110.745171,59.410934 110.744316,59.421967 
	C110.714035,59.814766 110.712334,60.209770 111.202568,60.609146 
z"/>
<path fill="#E73592" opacity="1.000000" stroke="none" 
	d="
M51.349770,126.336914 
	C52.732475,126.455963 54.077179,126.919128 57.178806,127.987442 
	C55.221809,129.156403 54.110443,129.820236 52.888546,130.827393 
	C52.289265,129.674149 51.800518,128.177582 51.349770,126.336914 
z"/>
<path fill="#E73592" opacity="1.000000" stroke="none" 
	d="
M54.541859,137.482361 
	C55.558899,136.969803 56.630886,136.804321 58.380634,136.534210 
	C57.591644,138.298264 57.079441,139.443466 56.303490,140.786835 
	C55.558762,139.933136 55.077782,138.881287 54.541859,137.482361 
z"/>
<path fill="#CAE8EE" opacity="1.000000" stroke="none" 
	d="
M35.829788,70.237793 
	C36.157688,69.444695 36.502766,68.927116 37.061619,68.182533 
	C37.616589,67.954933 37.957779,67.954323 38.554630,67.952248 
	C38.097511,69.022453 37.384727,70.094131 36.349358,71.100555 
	C35.966835,70.861298 35.906898,70.687302 35.829788,70.237793 
z"/>
<path fill="#FEFFFF" opacity="1.000000" stroke="none" 
	d="
M41.124443,178.463943 
	C40.571922,178.723907 39.797489,178.659973 39.031166,178.249771 
	C39.660362,177.982346 40.281445,178.061188 41.124443,178.463943 
z"/>
<path fill="#F4FAFB" opacity="1.000000" stroke="none" 
	d="
M50.587364,66.858627 
	C50.431343,67.476280 49.945984,68.178574 49.098114,68.892380 
	C49.243076,68.250343 49.750549,67.596802 50.587364,66.858627 
z"/>
<path fill="#F4FAFB" opacity="1.000000" stroke="none" 
	d="
M34.008575,109.287651 
	C34.047466,109.000275 34.520905,108.999374 34.757622,108.998825 
	C34.964909,109.632332 34.935478,110.266396 34.837681,112.373299 
	C34.265694,110.529305 34.117691,110.052162 34.008575,109.287651 
z"/>
<path fill="#CAE8EE" opacity="1.000000" stroke="none" 
	d="
M35.016190,72.286530 
	C35.147884,71.590607 35.334812,71.310509 35.780865,71.022873 
	C35.939838,71.689934 35.839691,72.364532 35.472588,73.284805 
	C35.160900,73.254440 35.116161,72.978394 35.016190,72.286530 
z"/>
<path fill="#E73592" opacity="1.000000" stroke="none" 
	d="
M52.720825,131.470016 
	C53.098408,131.690979 53.480053,132.274689 53.812412,133.240387 
	C53.417046,133.025848 53.070969,132.429291 52.720825,131.470016 
z"/>
<path fill="#E73592" opacity="1.000000" stroke="none" 
	d="
M51.716805,118.915855 
	C51.965874,119.067101 51.978600,119.252922 51.995663,119.719376 
	C52.000000,120.000000 51.997486,120.003273 51.997486,120.003273 
	C51.997486,120.003273 51.536022,120.000122 51.306190,119.998871 
	C51.076355,119.997620 50.954796,119.515327 50.981407,119.268341 
	C51.008022,119.021362 51.480453,118.950432 51.716805,118.915855 
z"/>
<path fill="#E73592" opacity="1.000000" stroke="none" 
	d="
M53.587803,134.452042 
	C53.764565,134.091782 54.010544,134.061600 54.628262,134.015701 
	C55.000000,134.000000 55.000916,134.000610 55.000916,134.000610 
	C54.956867,134.282761 54.912815,134.564896 54.733482,135.256836 
	C54.284470,135.371780 53.970745,135.076935 53.587803,134.452042 
z"/>
<path fill="#CAE8EE" opacity="1.000000" stroke="none" 
	d="
M41.195435,63.254951 
	C40.977325,62.835686 40.976734,62.661659 41.099907,62.257782 
	C41.520214,62.199936 41.738098,62.442596 41.945293,62.996307 
	C41.813164,63.324528 41.613056,63.412361 41.195435,63.254951 
z"/>
<path fill="#FDFDFD" opacity="1.000000" stroke="none" 
	d="
M124.050011,176.896652 
	C123.974922,176.642990 124.228806,176.358719 124.768967,176.034317 
	C124.829826,176.284805 124.604408,176.575424 124.050011,176.896652 
z"/>
<path fill="#F6FAFB" opacity="1.000000" stroke="none" 
	d="
M103.018158,61.269016 
	C103.178802,61.233837 103.474350,61.422367 103.870216,61.860622 
	C103.698044,61.904476 103.425560,61.698601 103.018158,61.269016 
z"/>
<path fill="#F9FCFD" opacity="1.000000" stroke="none" 
	d="
M96.744003,62.729492 
	C96.365936,62.801418 96.268257,62.565609 96.504768,62.156063 
	C96.616081,62.058636 96.801506,62.498058 96.744003,62.729492 
z"/>
<path fill="#E73592" opacity="1.000000" stroke="none" 
	d="
M56.631134,109.096512 
	C55.676220,112.087593 54.352188,115.028992 52.669098,117.985168 
	C53.627365,115.015564 54.944687,112.031189 56.631134,109.096512 
z"/>
<path fill="#F9FCFD" opacity="1.000000" stroke="none" 
	d="
M71.560074,78.398605 
	C71.865395,77.503983 72.375801,76.819786 72.886215,76.135582 
	C73.192268,76.477791 73.498322,76.820000 73.804375,77.162209 
	C73.124634,77.644485 72.444893,78.126755 71.560074,78.398605 
z"/>
<path fill="#F9FCFD" opacity="1.000000" stroke="none" 
	d="
M57.635811,105.127487 
	C57.087666,104.877769 56.719307,104.435394 56.399712,103.960228 
	C56.385448,103.939026 56.814556,103.619614 57.037155,103.439102 
	C57.299706,103.935608 57.562256,104.432121 57.635811,105.127487 
z"/>
<path fill="#F9FCFD" opacity="1.000000" stroke="none" 
	d="
M94.012543,63.760849 
	C93.900574,63.591797 93.955383,63.421032 94.010193,63.250267 
	C94.066574,63.419891 94.122955,63.589516 94.012543,63.760849 
z"/>
<path fill="#E73592" opacity="1.000000" stroke="none" 
	d="
M52.001686,119.998688 
	C52.123722,120.139893 52.244064,120.282402 52.364410,120.424911 
	C52.278942,120.375916 52.193478,120.326927 52.052750,120.140602 
	C51.997486,120.003273 52.000000,120.000000 52.001686,119.998688 
z"/>
<path fill="#E73592" opacity="1.000000" stroke="none" 
	d="
M54.999649,133.999588 
	C55.092274,133.963531 55.185249,133.927887 55.139572,133.946426 
	C55.000916,134.000610 55.000000,134.000000 54.999649,133.999588 
z"/>
<path fill="#F4FAFB" opacity="1.000000" stroke="none" 
	d="
M88.473419,40.499039 
	C88.400505,40.090153 88.481445,39.838039 88.562378,39.585926 
	C88.837959,39.867870 89.113541,40.149815 89.389130,40.431759 
	C89.135170,40.506447 88.881218,40.581131 88.473419,40.499039 
z"/>
<path fill="#F4FAFB" opacity="1.000000" stroke="none" 
	d="
M84.154892,41.866669 
	C84.043159,42.181694 83.779022,42.346695 83.514885,42.511692 
	C83.677422,42.246677 83.839958,41.981659 84.154892,41.866669 
z"/>
<path fill="#F4FAFB" opacity="1.000000" stroke="none" 
	d="
M77.840378,45.697289 
	C77.502426,45.415939 77.383049,45.166092 77.263672,44.916245 
	C77.504303,44.844494 77.744934,44.772747 77.985565,44.701004 
	C78.010025,45.043598 78.034492,45.386192 77.840378,45.697289 
z"/>
<path fill="#F4FAFB" opacity="1.000000" stroke="none" 
	d="
M73.446518,46.744942 
	C73.861160,46.875881 74.126213,47.158978 74.391266,47.442078 
	C74.279938,47.530941 74.084976,47.709557 74.069702,47.695328 
	C73.799110,47.443207 73.550377,47.167622 73.446518,46.744942 
z"/>
<path fill="#F6FAFB" opacity="1.000000" stroke="none" 
	d="
M110.954605,60.606804 
	C110.712334,60.209770 110.714035,59.814766 110.744316,59.421967 
	C110.745171,59.410934 111.051338,59.423435 111.215141,59.424965 
	C111.210953,59.819691 111.206757,60.214420 110.954605,60.606804 
z"/>
</svg>